<?xml version="1.0" encoding="iso-8859-1"?>
<!-- Generator: Adobe Illustrator 16.0.0, SVG Export Plug-In . SVG Version: 6.00 Build 0)  -->
<!DOCTYPE svg PUBLIC "-//W3C//DTD SVG 1.1//EN" "http://www.w3.org/Graphics/SVG/1.1/DTD/svg11.dtd">
<svg version="1.1" id="Capa_1" xmlns="http://www.w3.org/2000/svg" xmlns:xlink="http://www.w3.org/1999/xlink" x="0px" y="0px"
	 width="29.705px" height="29.705px" viewBox="0 0 29.705 29.705" style="enable-background:new 0 0 29.705 29.705;"
	 xml:space="preserve">
<g>
	<path d="M26.593,3.515v2.418H23.54v-1.45h-1.996v1.45h-0.821v-1.45h-1.996v1.45H9.921v-1.45H7.925v1.45H7.104v-1.45H5.107v1.45
		H3.111V3.139H0V26.19h3.111v-2.794h5.152v1.29h1.996v-1.29h0.733v1.29h1.997v-1.29h0.821v1.29h1.997v-1.29h2.539v1.29h1.996v-1.29
		h3.641v1.29h1.996v-1.29h0.617v3.17h3.109V3.515H26.593z M15.585,15.201v1.291h-0.821v-1.291h-1.997v1.291h-0.733v-1.291h-1.996
		v1.291H9.275v-1.291H7.279v1.291H6.457v-1.291H4.461v1.291h-1.35v-4.487h8.63v1.29h1.996v-1.29h0.822v1.29h1.996v-1.29h0.764v1.29
		h1.996v-1.29h3.229v1.29h1.996v-1.29h2.056v4.487h-9.013v-1.289h-1.998V15.201z M5.107,6.953v1.129h1.997V6.953h0.821v1.129h1.996
		V6.953h8.806v1.129h1.996V6.953h0.822v1.129h1.996V6.953h3.053v4.031h-2.055v-1.29h-1.996v1.29h-3.229v-1.29h-1.998v1.29h-0.762
		v-1.29h-1.997v1.29h-0.822v-1.29H11.74v1.29H3.11V6.953H5.107z M25.977,22.375v-1.289H23.98v1.289H20.34v-1.289h-1.996v1.289
		h-2.539v-1.289H13.81v1.289h-0.821v-1.289h-1.997v1.289h-0.733v-1.289H8.263v1.289H3.111v-4.862h1.35v1.289h1.996v-1.289h0.822
		v1.289h1.996v-1.289h0.764v1.289h1.996v-1.289h0.733v1.289h1.997v-1.289h0.821v1.289h1.997v-1.289h9.013v4.862H25.977z"/>
</g>
<g>
</g>
<g>
</g>
<g>
</g>
<g>
</g>
<g>
</g>
<g>
</g>
<g>
</g>
<g>
</g>
<g>
</g>
<g>
</g>
<g>
</g>
<g>
</g>
<g>
</g>
<g>
</g>
<g>
</g>
</svg>
