<?xml version="1.0" encoding="iso-8859-1"?>
<!-- Generator: Adobe Illustrator 16.0.0, SVG Export Plug-In . SVG Version: 6.00 Build 0)  -->
<!DOCTYPE svg PUBLIC "-//W3C//DTD SVG 1.1//EN" "http://www.w3.org/Graphics/SVG/1.1/DTD/svg11.dtd">
<svg version="1.1" id="Capa_1" xmlns="http://www.w3.org/2000/svg" xmlns:xlink="http://www.w3.org/1999/xlink" x="0px" y="0px"
	 width="61.818px" height="61.818px" viewBox="0 0 61.818 61.818" style="enable-background:new 0 0 61.818 61.818;"
	 xml:space="preserve">
<g>
	<g>
		<path d="M33.625,58.991c-6.416,0-14.066-0.201-22.741-0.6c-0.204,0.021-0.813,0.036-1.348-0.58
			c-0.109-0.127-0.203-0.277-0.29-0.439c-0.488,0.354-0.825,0.907-0.865,1.554c-0.068,1.149,0.806,2.137,1.955,2.206
			c0.805,0.046,11.724,0.687,22.76,0.687c8.804,0,17.687-0.408,21.556-1.847c1.079-0.4,1.628-1.601,1.229-2.68
			c-0.187-0.498-0.547-0.877-0.981-1.106c0.014,0.207,0.028,0.415,0.031,0.637l0.003,0.279l-0.229,0.156
			C54.448,57.434,51.661,58.991,33.625,58.991z"/>
		<path d="M10.499,36.71c1.126,7.912,0.716,9.839,0.097,12.757c-0.195,0.915-0.415,1.953-0.609,3.314
			c-0.377,2.641-0.058,3.744,0.234,4.203c0.035,0.056,0.07,0.105,0.103,0.145c0.173,0.199,0.343,0.228,0.428,0.228l0.081-0.021
			l0.052,0.015c8.678,0.397,16.33,0.6,22.741,0.6c15.076,0,19.285-1.096,20.256-1.451c-0.009-0.192-0.025-0.372-0.045-0.552
			c-0.35-3.42-2.525-4.602-5.694-6.316c-0.946-0.514-2.019-1.092-3.121-1.78c-4.968-3.102-13.84-6.751-13.929-6.786l-0.466-0.192
			l0.175-0.473c1.686-4.553,1.834-35.983,1.846-40.348C31.776,0.016,30.961,0,30.199,0C20.185,0,19.77,2.714,19.766,2.742
			L19.28,7.147l-0.55-4.372C18.545,1.298,15.315,0.45,9.867,0.45c-1.761,0-3.303,0.092-4.061,0.146
			c0.745,15.21,2.019,21.69,3.252,27.956C9.577,31.179,10.064,33.661,10.499,36.71z"/>
	</g>
</g>
<g>
</g>
<g>
</g>
<g>
</g>
<g>
</g>
<g>
</g>
<g>
</g>
<g>
</g>
<g>
</g>
<g>
</g>
<g>
</g>
<g>
</g>
<g>
</g>
<g>
</g>
<g>
</g>
<g>
</g>
</svg>
