<?xml version="1.0" encoding="iso-8859-1"?>
<!-- Generator: Adobe Illustrator 19.0.0, SVG Export Plug-In . SVG Version: 6.00 Build 0)  -->
<svg version="1.1" id="Layer_1" xmlns="http://www.w3.org/2000/svg" xmlns:xlink="http://www.w3.org/1999/xlink" x="0px" y="0px"
	 viewBox="0 0 512 512" style="enable-background:new 0 0 512 512;" xml:space="preserve">
<g>
	<g>
		<path d="M395.13,105.739H228.174c-64.445,0-116.87,52.429-116.87,116.87v100.174v50.087H16.696C7.479,372.87,0,380.343,0,389.565
			c0,9.223,7.479,16.696,16.696,16.696h478.609c9.217,0,16.696-7.473,16.696-16.696V222.609
			C512,158.168,459.576,105.739,395.13,105.739z M311.652,289.391c0,9.206-7.49,16.696-16.696,16.696H144.696v-66.783h150.261
			c9.206,0,16.696,7.49,16.696,16.696V289.391z M478.609,372.87h-66.783V222.609c0-32.689-13.527-62.247-35.233-83.478h18.538
			c46.032,0,83.478,37.446,83.478,83.478V372.87z"/>
	</g>
</g>
<g>
</g>
<g>
</g>
<g>
</g>
<g>
</g>
<g>
</g>
<g>
</g>
<g>
</g>
<g>
</g>
<g>
</g>
<g>
</g>
<g>
</g>
<g>
</g>
<g>
</g>
<g>
</g>
<g>
</g>
</svg>
