<?xml version="1.0" encoding="iso-8859-1"?>
<!-- Generator: Adobe Illustrator 19.0.0, SVG Export Plug-In . SVG Version: 6.00 Build 0)  -->
<svg version="1.1" id="Layer_1" xmlns="http://www.w3.org/2000/svg" xmlns:xlink="http://www.w3.org/1999/xlink" x="0px" y="0px"
	 viewBox="0 0 512.002 512.002" style="enable-background:new 0 0 512.002 512.002;" xml:space="preserve">
<g>
	<g>
		<g>
			<path d="M404.009,312.006V120.877c0-36.1-35.618-61.768-69.899-50.125c-8.944-27.958-39.236-43.601-67.4-34.036
				c-15.648-48.935-85.178-48.973-100.839,0C131.549,25.06,95.972,50.783,95.972,86.842v65.987
				c-33.688-9.595-67.399,15.8-67.399,50.907v108.272c0,31.344,21.186,57.836,49.988,65.908c0,13.281,0,101.168,0,114.865
				c0,10.615,8.606,19.22,19.22,19.22h237.019c10.615,0,19.22-8.606,19.22-19.22c0-13.684,0-101.584,0-114.865
				C382.825,369.843,404.009,343.352,404.009,312.006z M315.581,473.559H117.002v-15.074h198.579V473.559z"/>
			<path d="M423.882,67.622c-10.615,0-19.22,8.606-19.22,19.22s8.606,19.22,19.22,19.22c11.638,0,21.106,9.468,21.106,21.106
				v184.839c0,31.861-15.635,61.874-41.823,80.287c-5.119,3.599-8.166,9.465-8.166,15.723v65.544h-11.444
				c-10.615,0-19.22,8.606-19.22,19.22c0,10.615,8.606,19.22,19.22,19.22h30.664c10.615,0,19.22-8.606,19.22-19.22v-75.254
				c31.476-25.855,49.989-64.583,49.989-105.522v-184.88c0-0.018,0-0.035,0-0.051C483.375,94.284,456.683,67.622,423.882,67.622z"/>
		</g>
	</g>
</g>
<g>
</g>
<g>
</g>
<g>
</g>
<g>
</g>
<g>
</g>
<g>
</g>
<g>
</g>
<g>
</g>
<g>
</g>
<g>
</g>
<g>
</g>
<g>
</g>
<g>
</g>
<g>
</g>
<g>
</g>
</svg>
