<?xml version="1.0" encoding="iso-8859-1"?>
<!-- Generator: Adobe Illustrator 18.0.0, SVG Export Plug-In . SVG Version: 6.00 Build 0)  -->
<!DOCTYPE svg PUBLIC "-//W3C//DTD SVG 1.1//EN" "http://www.w3.org/Graphics/SVG/1.1/DTD/svg11.dtd">
<svg version="1.1" id="Capa_1" xmlns="http://www.w3.org/2000/svg" xmlns:xlink="http://www.w3.org/1999/xlink" x="0px" y="0px"
	 viewBox="0 0 496.353 496.353" style="enable-background:new 0 0 496.353 496.353;; fill: #004F54" xml:space="preserve">
<g id="XMLID_194_">
	<path id="XMLID_198_" d="M273.662,222.415l-53.113-20.701l-33.943-69.418l33.391,44.18V147.8c0-23.015-18.664-41.678-41.677-41.678
		h-17.791c-23.031,0-41.694,18.663-41.694,41.678v146.177l-16.239,175.236c-1.279,13.665,8.767,25.765,22.432,27.034
		c0.791,0.073,1.569,0.106,2.331,0.106c12.681,0,23.501-9.664,24.694-22.549l13.941-150.338h7.019l13.942,150.338
		c1.198,12.885,12.018,22.549,24.698,22.549c0.762,0,1.536-0.033,2.331-0.106c13.664-1.27,23.71-13.369,22.432-27.034
		l-16.419-177.074v-28.432l-28.025-10.925l-5.337-2.072c-7.407-2.893-12.65-9.162-14.622-16.285l-22.618-84.127l37.496,76.856
		c2.297,4.675,6.244,8.314,11.094,10.198l60.635,23.637c2.477,0.964,5.013,1.426,7.523,1.426c8.279,0,16.105-5.009,19.275-13.191
		C289.592,238.565,284.319,226.564,273.662,222.415z"/>
	<path id="XMLID_197_" d="M169.425,96.806c26.717,0,48.391-21.665,48.391-48.4C217.816,21.663,196.142,0,169.425,0
		c-26.751,0-48.421,21.663-48.421,48.406C121.003,75.141,142.674,96.806,169.425,96.806z"/>
	<path id="XMLID_196_" d="M389.963,333.445c-2.814-3.055-6.774-4.794-10.931-4.794H270.539c-4.157,0-8.117,1.739-10.932,4.794
		c-2.797,3.059-4.204,7.15-3.849,11.282l11.547,136.656c0.647,7.681,7.083,13.585,14.781,13.585h85.398
		c7.698,0,14.134-5.904,14.78-13.585l11.547-136.656C394.171,340.596,392.764,336.504,389.963,333.445z"/>
	<path id="XMLID_195_" d="M302.825,306.249c4.14,3.632,10.188,4.036,14.746,0.98l16.692-11.175c2.425-1.619,4.174-4.069,4.948-6.883
		l2.087-7.65c0.889-3.285,0.372-6.793-1.437-9.672c-1.83-2.87-4.773-4.851-8.121-5.449l-18.275-3.261
		c-4.563-0.809-9.186,1.044-11.902,4.788l-10.028,13.708c-3.687,5.062-2.913,12.105,1.779,16.244L302.825,306.249z"/>
</g>
<g>
</g>
<g>
</g>
<g>
</g>
<g>
</g>
<g>
</g>
<g>
</g>
<g>
</g>
<g>
</g>
<g>
</g>
<g>
</g>
<g>
</g>
<g>
</g>
<g>
</g>
<g>
</g>
<g>
</g>
</svg>
