<?xml version="1.0" encoding="iso-8859-1"?>
<!-- Generator: Adobe Illustrator 19.0.0, SVG Export Plug-In . SVG Version: 6.00 Build 0)  -->
<svg version="1.1" id="Layer_1" xmlns="http://www.w3.org/2000/svg" xmlns:xlink="http://www.w3.org/1999/xlink" x="0px" y="0px"
	 viewBox="0 0 511.868 511.868" style="enable-background:new 0 0 511.868 511.868;" xml:space="preserve">
<circle style="fill:#ECF0F1;" cx="255.934" cy="255.934" r="255.934"/>
<circle style="fill:#83CF8F;" cx="255.934" cy="255.934" r="255.934"/>
<path style="fill:#5D718F;" d="M255.934,59.112c75.042,0,135.866,60.824,135.866,135.866s-60.824,135.866-135.866,135.866
	s-135.866-60.824-135.866-135.866S180.892,59.112,255.934,59.112z"/>
<path style="fill:#6B7F9E;" d="M255.934,59.112c53.846,0,100.32,31.334,122.306,76.754c3.291,12.375,5.134,25.277,5.134,38.706
	c0,82.02-66.485,148.505-148.505,148.505c-12.244,0-24.093-1.448-35.415-4.213c-46.869-21.46-79.519-68.723-79.519-123.623
	c0-75.042,60.824-135.866,135.866-135.866L255.934,59.112z"/>
<path style="fill:#F7F9F7;" d="M340.851,88.866c25.277,20.275,43.182,49.37,48.975,82.547c-0.395-0.658-0.79-1.448-1.185-2.633
	c-2.633,0.922-2.765,0.922-5.924,1.448l-0.132,0.132c-1.185,1.711,0,1.053-2.106,2.896c-2.633,2.238-4.345,5.134-7.241,6.978
	c-0.395,3.16,0.263,3.818-0.527,7.504c-0.263,1.317-1.843,5.003-3.555,4.74c-0.527-0.132-2.896-6.056-3.555-7.636
	c-0.922-2.765-2.106-4.871-2.765-8.031c-0.395-1.712-0.658-5.003-1.053-6.188c-1.843,0.263-1.843,1.448-3.555,0.263
	c-1.317-0.922-0.658-1.448-1.448-2.765c-1.448-1.448-3.028-2.765-4.476-4.213c-1.185-0.395-5.661,0.263-7.636,0.132
	c-3.423-0.263-3.686-0.132-5.793-2.896c-3.555,0.132-3.291,1.58-6.846-1.448c-2.37-1.975-1.843-5.134-5.266-3.291
	c-0.132,2.896,1.317,3.423,2.501,4.871c0.922,1.053,2.106,1.712,2.501,3.028c0,0,0.263,1.317,0.263,1.448
	c3.291,0.263,4.081-1.317,5.793-2.633c1.712,1.58,0,1.975,2.633,3.16c1.975,1.053,1.58,0.395,2.896,2.106
	c0.658,2.238-4.476,8.163-6.188,9.216c-1.317,0.79-1.975,0.395-3.16,1.317c-1.711,1.448,0.263,1.317-2.765,2.37
	c-3.291,1.185-6.451,3.686-9.874,3.95c-0.79-1.975-1.448-4.081-2.238-6.188c-2.238-6.978-2.106-4.345-4.345-7.899
	c-1.053-1.58-0.658-2.633-1.317-3.95c-0.527-1.053-1.185-1.448-1.843-2.765c-1.053-1.975-2.238-5.134-4.476-4.74
	c-0.527,1.58,2.106,6.846,2.765,8.163c0.658,1.317,1.711,1.843,1.975,3.686c0.395,2.501-0.132,2.238,1.317,3.95
	c2.896,3.555-0.132,2.896,4.345,6.319c3.423,2.633,2.501,3.291,3.95,6.846c2.238,0.658,8.821-2.37,10.006-1.448
	c1.317,2.37-1.58,6.188-2.37,8.294c-2.501,6.978-6.714,6.846-10.006,12.244c-1.843,2.896-2.633,3.291-4.213,6.714
	c-1.843,3.95,3.818,14.877,0.395,19.353c-0.79,1.053-3.16,1.712-6.188,4.871c-3.16,3.423,0.132,2.896-1.185,8.557
	c-0.922,1.317-2.106,1.448-3.291,2.37c-0.395,1.317-0.132,2.37-0.79,4.081c-0.79,1.975-0.922,0.922-2.106,2.633
	c-0.79,1.317-0.79,1.843-1.711,3.028c-0.79,1.053-1.317,1.448-2.106,2.106c-3.818,3.423-11.98,3.555-12.639,3.16
	c-1.975-1.58-0.658-2.106-1.053-4.345c-0.527-1.975-1.58-3.686-2.37-5.266l-0.132-0.132c-0.395-0.79-0.79-1.448-1.053-2.238
	c-1.58-5.003-1.053-8.689-3.686-13.692c-3.423-6.451,1.975-9.874,1.711-13.56c-0.132-0.922-0.395-1.58-0.527-2.37
	c-0.658-4.081-1.053-7.636-3.686-10.796c-2.896-3.423-2.633-2.238-1.58-7.899c1.185-6.583-1.58-4.871-5.529-5.003
	c-1.975-5.924-5.661-3.028-9.347-1.317c-2.37,1.053-3.16-0.263-5.924,0.132c-5.924,0.79-1.317,3.291-9.216-2.896
	c-3.291-2.633-1.053-1.317-3.028-4.608c-0.658-1.185-2.633-2.765-3.555-3.95c-3.028-3.818,0.527-7.504,0-11.849
	c-0.922-8.031-2.238-1.053,2.238-10.796c2.37-5.134,5.924-5.134,6.846-7.504c0.79-2.106,0.263-3.555,1.712-5.398
	c1.317-1.58,3.16-1.185,3.95-3.686c1.053-2.896-0.922-3.291-3.16-3.423c-0.922-3.16-0.922-2.37-0.263-5.134
	c0.395-1.58,0-2.37,0.395-3.95c0.922-3.95,7.636,0,9.611-1.711c0.922-1.712,1.053-3.423,0-5.003
	c-1.053-1.58-2.501-1.448-3.291-3.028c1.711-1.053,0.395-0.132,1.843-0.395c1.711-0.395,1.448-0.922,3.423-1.317
	c1.843-0.395,2.896-1.975,4.608-3.16c2.501-1.58,1.317-3.028,4.345-3.555c4.871-0.79,1.711-0.658,2.238-5.134
	c0.79-0.263,1.448-0.658,2.106-0.922c1.58,1.975-0.395,1.185,1.448,2.501c0.527-0.263,1.053-0.527,1.58-0.79
	c-0.263-2.106-1.317-1.711-1.975-4.476c-2.37,0.395-3.291,2.37-5.134,1.711c-1.843-0.658-1.975-3.423-1.843-5.661
	c0.658-1.711,4.213-2.633,5.529-3.028c2.238-0.79,1.843-2.238,3.818-4.213c2.633-2.633,0.658,0,1.975-3.291
	c2.896-0.132,1.58-0.263,3.16-1.053h0.132l0.132-0.132c1.053-0.395,2.37-0.527,3.555-1.053c4.74-1.58,6.714-0.79,10.269,0.658
	c2.633,1.053,10.796,1.185,11.454,4.608c-1.975,2.106-3.818,0.527-6.714,0.79c0.527,2.633,0.79,2.633,3.16,3.423
	c0.395-1.317-0.132-0.79,0.527-1.58c0.79,0.132,1.58,0.263,2.37,0.395c0.79-2.633,1.711-2.238,4.345-2.633
	c-0.395-1.843-0.922-1.317,0.132-2.765c2.765,0.263,0.527,0,1.843,2.238c1.975-0.263,3.818-2.37,6.451-2.633
	c1.711-0.132,1.58,0.395,3.95,0.263c1.975-0.263,1.843-0.922,3.686-0.132c0.658-1.317,0-1.317,1.711-1.58
	c2.633-0.395,4.871,1.185,7.373,1.448c-1.843-2.238-3.686-1.843-1.317-5.661c2.896-0.527,3.16-0.132,4.476,1.975
	c0.658-0.395,1.053-0.79,1.317-1.053L340.851,88.866z M123.228,165.62c6.188-27.911,20.801-52.53,41.076-71.093
	c1.58,0.527,3.686,0.132,5.266,0.132c0.527-1.053,0.922-1.975,1.975-2.37c0.395-0.132,0.922-0.132,1.58-0.132
	c0.132,0.527,0.263,1.053,0.395,1.58c0,0,0.132,0.395,0,0.263c0-0.132,0.132,0.263,0.132,0.263c2.765-1.58,0.395-1.58,1.975-4.476
	c-2.37-0.395-1.975-0.132-3.423-1.58c1.448-1.58,4.081-2.106,6.056-1.975c-0.132,1.448-0.79,1.317-0.263,2.501
	c1.58-0.922,2.633-3.555,5.134-3.16c0.527,0.395,1.053,0.658,1.58,0.922c-1.317,1.185-3.291,1.317-5.003,1.975
	c-0.79,7.504,2.37,1.185,1.317,6.451c1.843-0.132,3.686-1.448,4.345-2.896c-0.658-0.922-1.712-0.922-2.238-1.975
	c0.395-1.448,1.317-2.501,2.633-3.028c0.922-0.395,1.975-0.658,3.16-0.658c13.824,0.132,7.241,0.79,11.585,2.633
	c0.922,0.395,2.633,0.658,3.16,1.448c0.922,1.317,0,2.633,1.448,3.686c1.185,0.922,1.448,0,3.028,1.975
	c-0.395,1.185-1.185,2.37-2.896,2.37c-2.37,0-0.922-1.58-3.423-1.317c0,2.37,2.37,3.291,0.263,4.608
	c-1.975,1.185-0.658-0.395-2.106,0.395c0,0-0.132,0.132-0.263,0.132c-0.132,0.132-0.132,0.132-0.263,0.263
	c-0.263,0.263-0.527,0.527-0.658,0.79c-3.423-0.922-2.765-0.527-4.871-2.765c-0.79-0.922-0.922-1.053-2.37-0.922
	c-0.922,0-1.975,0.395-2.896-0.395c1.711-2.106,2.501-0.132,5.003-1.317c0.395-0.263,3.16-2.37,3.555-2.765
	c-0.79-1.711-0.132-0.263-1.185-1.317c-2.501-2.501-3.16-1.843-6.451-1.843c-1.58,1.843-2.765,3.95-4.345,5.003
	c-1.053,0.527-2.238,0.658-3.818,0c0.79,3.028,2.633,0.658,2.765,4.345c-1.317-0.263-1.975-0.922-3.16-0.395
	c-2.765,1.053-0.263,0.922-0.132,1.448c0,0,1.317,0.132,0,0.658c-1.448,0.527-0.263-0.263-3.028-1.975
	c0.395-0.658,0.79-1.448,1.185-2.106c-2.238,0.658-5.134,1.843-7.768,3.16c-3.028,1.448-5.793,3.16-7.504,4.74
	c0,2.633,0.395,0.922,0.658,3.95c4.081,0.263,2.765,1.448,6.846,2.633c0.79,0.263,1.843,0.395,3.028,0.658
	c0,1.975-1.712,3.423-0.527,5.398c2.765,1.975,2.896-1.843,3.555-4.345c9.611-1.975,5.003-4.871,7.373-10.137
	c0.395-0.79,0.922-1.58,1.711-2.501c0.79,0,3.686,0.395,4.345,0.527c2.238,0.395,1.053,0.922,3.291,1.975
	c0,1.843-1.053,4.345,1.843,3.818c2.106-0.395,1.711-2.106,4.213-2.501c1.185,2.765,0.922,3.95,1.448,7.241
	c6.319,2.501,3.423,4.476,2.238,8.952c0.79,0.395,1.58,0.79,2.501,1.053c0,1.317-0.132,2.633-0.132,3.95
	c-0.132,0-6.714-1.448-7.109-1.58c1.053-2.896,2.765-2.896,3.95-5.793c-2.37,0.395-2.238,1.185-3.818,1.711
	c-1.58,0.395-2.633,0.132-4.345,0.395c-0.527,1.843,0-1.58,0.132,0.79c0.132,0.922,0.527,0-0.132,1.053
	c-2.238-1.053-1.448-3.423-5.529-1.185c0.922,0.395,1.843,0.79,2.765,1.185c-0.132,2.633-0.395,0.658-0.922,2.501
	c-1.448,4.608,3.818,1.711,5.134,1.448c-0.395,2.37-1.843,2.37-3.95,3.028c-2.37,0.658-3.028,1.58-4.871,2.106
	c0-2.896-0.395-0.395,0.79-2.501c-1.843,0.132-3.16,1.053-4.871,1.711l-0.132,0.132c-2.238,0.922-2.633,1.053-2.896,3.95
	c-1.975,0.527-4.081,1.317-5.529,2.633c-1.317,1.317-2.633,2.633-3.95,3.818c-0.132,0.132-0.263,0.263-0.263,0.263
	c0.527,3.555,0,3.686-2.238,5.003c-1.843,1.185-2.501,1.185-4.081,2.633c-5.398,4.871-2.765,2.633-2.501,11.059
	c-1.185-0.395-2.238-0.79-3.291-1.053c-0.79-5.529,0.263-3.686-4.213-5.003c-4.871-1.448-4.213,0.922-6.188,1.448
	c-2.238,0.527-3.291-1.975-6.583,0.132c-1.843,1.185-3.423,1.975-3.95,4.213c-0.527,2.633-1.712,4.476-1.58,7.373
	c0.263,7.899,7.504,8.294,9.216,4.608c1.185-2.501,0.922-3.818,4.871-3.16c0.395,2.106-0.263,3.686-0.79,5.266
	c-0.395,0.922-1.317,2.633-0.79,3.95c2.896,1.185,2.896-1.053,6.714,1.185c0.263,3.686-1.712,7.899,1.185,10.006
	c2.238,1.58,2.37,0.132,4.345-0.132c2.238-0.395,1.843,0.922,3.818,1.317c1.185-1.448,0.658-0.527,1.448-2.238
	c1.317-2.896,1.711-1.58,4.74-3.423c0.263-0.132,0.527-0.395,0.922-0.527c0.395,0.79,0.79,1.448,1.053,2.106
	c2.238-2.633,2.501-0.132,5.134,0.658c1.185,0.263,1.975,0.395,2.501,0.395c1.843,0,2.106-0.922,4.74,0
	c0.263,0.132,0.658,0.263,1.053,0.395l0.132,0.132c0,0,0.132,0.132,0.263,0.132c0.395,0.527,0.527,0.922,0.79,1.448
	c1.843,1.712,3.555,3.423,5.266,5.134c3.423,1.317,3.423-1.185,7.373,2.633c1.711,1.58,0.922,1.58,1.843,3.555
	c0.132,0.263,0.395,0.658,0.527,1.053c0.395,0.922,0.79,1.843,1.185,2.765c1.843,2.37,4.213,0.922,6.714,3.291
	c1.448,1.448,0.395,0.922,3.555,1.58c4.871,0.79,3.028,0.395,6.714,3.16c1.448,1.053,1.843,0.395,3.16,1.317
	c1.843,2.633,1.448,5.398-0.132,7.768c-4.871,6.978-3.16,5.924-3.423,11.454c-0.132,3.16-1.053,9.874-4.081,10.664
	c-10.927,3.028-4.608,5.134-7.504,10.532c-0.79,1.58-1.448,1.975-1.975,3.16c-2.238,5.134-0.658,6.846-7.109,5.661
	c0.658,1.053,0.263,0.395,0.79,1.317c1.975,2.896,2.238,5.134-1.712,5.924c-3.291,0.658-1.843,0-2.238,3.686
	c-1.317,0.527-1.843,0-2.633,0.79c1.185,2.106,0.132,0.395,1.975,1.58c-0.395,1.185-0.658,2.238-0.922,3.423
	c-0.79,2.765-0.922,0.263-1.185,3.423c1.185,0.527,1.975,0.395,2.896,1.711c-0.132,1.053-1.185,3.95-1.448,5.529
	c1.58,2.37,2.896,5.003,6.319,5.266c0,1.975,0.395,1.843-1.317,2.238c-1.448,0.395-4.608-1.053-5.924-1.711
	c-2.238-1.185-4.345-2.765-5.924-5.134c-0.922-1.317-0.527-0.658-1.448-1.843c-1.711-2.106-1.053-3.16-1.448-4.476
	c-0.263-0.79-1.58-1.711-1.053-4.476c0.132-0.79,1.317-4.476-0.132-3.818c-1.448,0.658,1.185,0.395-0.922,1.317
	c-0.527-1.317-0.922-3.291-1.185-4.871c-0.527-2.765-1.185-2.896-1.448-4.476c-0.658-3.818,1.053-4.345-0.79-10.796
	c-1.185-4.213-0.658-14.35-1.975-19.485c-0.263-0.79-0.395-1.58-0.79-2.106c-1.185-1.975-4.081-2.896-6.319-4.476
	c-0.132,0-0.263-0.132-0.263-0.132c-3.16-2.238-6.188-10.927-8.689-14.219c-1.185-1.58-1.975-0.922-2.501-3.291
	c-0.527-2.238,0.263-1.843,1.053-3.818c-3.818-7.109,5.003-6.978,3.16-15.535c-0.395-1.58-1.58-3.818-2.501-4.476
	c-1.843,0.79-0.922,1.185-1.975,2.765c-1.448-0.79-2.896-1.711-4.345-2.501c-4.476-4.345-2.106-1.185-3.291-3.95
	c-2.633-5.924-5.266-2.633-8.426-5.529c-1.448-1.185-1.711-3.16-4.081-2.765c-3.555,0.527-1.58,1.053-5.398-0.658
	c-3.16-1.448-6.451-3.291-8.689-5.266c-0.132-4.213,1.185-3.818-2.106-7.768L123.228,165.62z M165.883,93.211
	c0.79-0.79,1.711-1.448,2.501-2.106l0.132,0.132c0.132,0.263,0.263,0.263,0.527,1.053c-2.238,0.527-2.238,0.922-3.028,1.053
	L165.883,93.211z M282.133,133.628c1.185,0.79,2.633,1.317,3.555,2.106c1.185,3.16-0.263,1.58,1.975,4.871
	c1.317,1.711,1.053,3.028,2.37,3.95c2.37-0.263,0.263,0.395,1.843-1.053c0.263-0.263,1.053-1.185,1.185-1.448
	c-0.79-1.185-1.317-1.317-1.975-2.501c2.633-3.555,3.818-1.58,4.476,0.79c1.711,6.583,4.345,4.608,6.451,4.345
	c2.238-0.263,0.263,0.132,2.37,0.658c1.975,0.527,1.053,0,2.37-0.395c4.608-1.053,1.053,7.768,0.527,8.689
	c-2.501,0.263-1.975-0.263-3.818-0.395c-3.555-0.395,0.263,2.106-8.294-0.658c-8.163-2.633-6.451-3.16-8.163,2.501
	c-1.843-0.132-1.843-0.527-3.555-1.053c-0.658-0.263-1.053-0.395-1.317-0.527h-0.132c-0.658-0.263,0,0-1.448-1.448
	c-1.317-1.185-4.345-1.448-6.583-2.633c0-1.843,1.711-3.423-0.395-5.661c-0.658-0.132-9.874,0.263-11.454,0.527
	c-3.028,0.658-3.555,3.16-7.636,2.633c-2.238-0.263-1.448-0.132-2.106-1.448c0.79-0.79,0-0.395,1.317-0.79
	c0.527-0.132,0.658-0.132,1.185-0.132c6.714-1.053,3.291-4.345,7.504-7.636c3.423-2.765,0.79,0,2.633-3.291
	c2.37-0.263,2.106,0.922,4.081,0c1.711-0.79,1.185-1.58,3.423-1.58c2.106,2.106,1.712,3.291,5.003,5.003
	c1.317,0.658,2.238,0.922,3.028,2.106c1.58,2.238,0.263,1.448,0.79,3.028c0.132-0.132,0.263-0.132,0.527-0.263h0.132
	c1.843-0.922-0.922-1.185,2.106-3.818c-0.922-0.658-1.448-1.053-2.106-1.317h-0.132c-2.37-1.317-1.448-0.132-4.345-3.818
	c-0.79-1.053-1.053-1.053-0.922-2.765c2.106-0.395,2.501,1.185,4.476,2.896c0.263,0.263,0.527,0.395,0.922,0.658h0.132V133.628z
	 M328.607,227.497c-1.975,0.922-2.238,3.16-3.555,4.476c-1.58,1.448-3.686,0.79-4.213,3.423c-0.79,3.291,1.317,2.238-1.053,6.583
	c-0.79,1.58-0.922,5.661,0.395,6.846c3.818,3.686,5.793-5.529,6.714-8.426c0.658-2.106,1.317-4.345,1.975-6.319
	c0.658-2.106,1.711-3.818-0.132-6.583H328.607z M322.287,130.337c0.263,4.213,2.765,5.924,4.608,7.899
	c-0.263,1.975-0.658,1.448-0.658,4.345c2.106,1.58,3.686,2.501,6.451,1.712c0.395-3.423-0.658-3.291-1.712-5.529
	c0.132-0.263,0.658-0.658,0.79-0.658c0.79-1.053,0.395,0.395,0.79-1.317c-2.106-0.658-5.398-2.765-5.661-5.529
	c1.053-0.79,0.658-0.263,1.448-0.79c1.58-1.053,0.395,0.527,1.317-1.185c-0.79-1.58-1.711-1.843-3.686-1.053
	c-0.922,0.395-3.16,1.975-3.686,2.37V130.337z M304.514,131.39c-1.317-1.843-1.317-2.765-3.818-2.896
	c-1.053,1.053-2.238,2.765-2.765,4.476c-0.922,2.633-0.263,0.79-0.132,3.555c0,0.132,0,0.263,0,0.395
	c0,1.711-0.395-0.263-0.132,1.185c2.106-0.395,0.527-0.395,1.975-0.922s5.793-1.843,7.109-1.448
	c3.028,0.658,5.529,3.028,8.952,0.658c-0.132-3.028-3.818-4.213-6.319-5.529c0.132-2.765,0.922-0.527,0.658-3.291
	c-0.922,0-1.448-0.132-2.238,0.132c-1.975,0.922-0.922,1.053-0.922,1.448c0.132,1.448,1.975-0.263,0,1.58
	c-0.527,0.527-1.448,0.527-2.238,0.527L304.514,131.39z M253.696,110.326c-0.132,4.871,1.58,3.291,3.16,5.661
	c-0.79,2.106-0.922,0.395-1.711,2.633c-0.79,1.711,0.132,0.132-0.263,3.291c1.317,0.132,3.16-0.395,4.74-0.527
	c2.37-0.263,2.37-0.395,3.16-2.765c-1.317-1.58-2.633-3.16-3.95-4.871c-1.712-2.633,0-0.79-0.527-3.028
	c-0.395-0.79-0.79-1.58-1.053-2.238c-2.238,0.79-2.106,0.527-3.555,1.975V110.326z"/>
<g>
	<path style="fill:#FED298;" d="M190.766,341.114c-22.249-12.902-59.244-40.813-59.244-40.813s-10.137,13.165-2.896,25.409
		c7.241,12.244,38.048,33.967,38.048,33.967s-0.132,9.479-10.006,2.37s-49.107-50.16-49.107-50.16s-20.801-62.799-25.146-72.936
		c-4.345-10.006-15.403-7.899-15.403-7.899s8.031,87.418,9.084,95.317c1.053,7.899,68.196,91.762,68.196,91.762l19.616,25.146
		l-13.297,46.079c23.171,10.401,48.053,17.51,74.253,20.801l1.448-85.18C235.791,391.142,213.015,354.148,190.766,341.114z"/>
	<path style="fill:#FED298;" d="M321.234,341.114c22.249-12.902,59.244-40.813,59.244-40.813s10.137,13.165,2.896,25.409
		c-7.241,12.244-38.048,33.967-38.048,33.967s0.132,9.479,10.006,2.37c9.874-7.109,49.107-50.16,49.107-50.16
		s20.801-62.799,25.146-72.936c4.345-10.006,15.403-7.899,15.403-7.899s-8.031,87.418-9.084,95.317s-68.196,91.762-68.196,91.762
		l-19.616,25.146l13.297,46.079c-23.171,10.401-48.053,17.51-74.253,20.801l-1.448-85.18
		C276.209,391.142,298.985,354.148,321.234,341.114z"/>
</g>
<g>
	<polygon style="fill:#FEFEFE;" points="366.786,310.175 379.293,300.696 381.137,305.568 370.473,314.125 	"/>
	<polygon style="fill:#FEFEFE;" points="145.345,310.57 132.97,301.091 131.127,305.831 141.527,314.652 	"/>
</g>
<g>
	<path style="fill:#F0B97D;" d="M110.326,267.52l3.555,51.082l0,0c-3.818-4.081-6.188-6.846-6.188-6.846
		s-6.188-18.826-12.639-37.653l-0.395-15.272c-0.132-5.661,14.877-8.163,15.667,8.557V267.52z"/>
	<path style="fill:#F0B97D;" d="M401.674,267.52l-3.555,51.082l0,0c3.818-4.081,6.188-6.846,6.188-6.846s6.188-18.826,12.639-37.653
		l0.395-15.272c0.132-5.661-14.877-8.163-15.667,8.557V267.52z"/>
</g>
<g>
</g>
<g>
</g>
<g>
</g>
<g>
</g>
<g>
</g>
<g>
</g>
<g>
</g>
<g>
</g>
<g>
</g>
<g>
</g>
<g>
</g>
<g>
</g>
<g>
</g>
<g>
</g>
<g>
</g>
</svg>
