<?xml version="1.0" encoding="iso-8859-1"?>
<!-- Generator: Adobe Illustrator 19.0.0, SVG Export Plug-In . SVG Version: 6.00 Build 0)  -->
<svg version="1.1" id="Layer_1" xmlns="http://www.w3.org/2000/svg" xmlns:xlink="http://www.w3.org/1999/xlink" x="0px" y="0px"
	 viewBox="0 0 330 330" style="enable-background:new 0 0 330 330;" xml:space="preserve">
<g id="XMLID_865_">
	<path id="XMLID_866_" d="M68.639,230h192.723l18.582-213.701c0.364-4.187-1.046-8.337-3.887-11.435
		C273.215,1.764,269.203,0,264.999,0l-200,0.013c-4.204,0-8.215,1.765-11.056,4.864c-2.842,3.098-4.251,7.247-3.887,11.436
		L68.639,230z M165,80c24.812,0,45,20.188,45,45s-20.188,45-45,45c-24.813,0-45-20.188-45-45S140.188,80,165,80z"/>
	<path id="XMLID_869_" d="M85,330h160c8.284,0,15-6.716,15-15v-55H70v55C70,323.284,76.716,330,85,330z"/>
</g>
<g>
</g>
<g>
</g>
<g>
</g>
<g>
</g>
<g>
</g>
<g>
</g>
<g>
</g>
<g>
</g>
<g>
</g>
<g>
</g>
<g>
</g>
<g>
</g>
<g>
</g>
<g>
</g>
<g>
</g>
</svg>
