<?xml version="1.0" encoding="iso-8859-1"?>
<!-- Generator: Adobe Illustrator 19.0.0, SVG Export Plug-In . SVG Version: 6.00 Build 0)  -->
<svg version="1.1" id="Layer_1" xmlns="http://www.w3.org/2000/svg" xmlns:xlink="http://www.w3.org/1999/xlink" x="0px" y="0px"
	 viewBox="0 0 430.456 430.456" style="enable-background:new 0 0 430.456 430.456;" xml:space="preserve">
<g>
	<path d="M35.154,221.054L68.625,58.71c2.055-9.965,11.521-17.411,18.612-17.411h20v-30h-20c-22.131,0-43.212,18.164-47.994,41.353
		L0,242.995c2.281-2.268,4.679-4.433,7.221-6.46C15.312,230.084,24.654,224.935,35.154,221.054z"/>
	<path d="M340.733,242.338c-56.615,0-89.443,11.872-102.385,41.523c-7.17-3.2-15.012-4.923-23.12-4.923s-15.95,1.722-23.12,4.923
		c-12.942-29.65-45.771-41.523-102.385-41.523c-60.534,0-80.96,28.224-85.935,56.564c-5.949,33.885,13.154,93.721,56.706,113.158
		c67.127,29.958,132.89-41.199,137.01-96.394c4.856-4.318,11.11-6.728,17.724-6.728s12.867,2.41,17.724,6.728
		c4.12,55.195,69.883,126.352,137.01,96.394c43.552-19.437,62.655-79.273,56.706-113.158
		C421.692,270.562,401.267,242.338,340.733,242.338z"/>
	<path d="M361.831,58.709l33.471,162.344c10.5,3.881,19.842,9.031,27.933,15.481c2.542,2.026,4.939,4.191,7.221,6.46L391.213,52.652
		c-4.781-23.189-25.862-41.353-47.994-41.353h-20v30h20C350.31,41.299,359.776,48.745,361.831,58.709z"/>
</g>
<g>
</g>
<g>
</g>
<g>
</g>
<g>
</g>
<g>
</g>
<g>
</g>
<g>
</g>
<g>
</g>
<g>
</g>
<g>
</g>
<g>
</g>
<g>
</g>
<g>
</g>
<g>
</g>
<g>
</g>
</svg>
