<?xml version="1.0" encoding="iso-8859-1"?>
<!-- Generator: Adobe Illustrator 18.0.0, SVG Export Plug-In . SVG Version: 6.00 Build 0)  -->
<!DOCTYPE svg PUBLIC "-//W3C//DTD SVG 1.1//EN" "http://www.w3.org/Graphics/SVG/1.1/DTD/svg11.dtd">
<svg version="1.1" id="Capa_1" xmlns="http://www.w3.org/2000/svg" xmlns:xlink="http://www.w3.org/1999/xlink" x="0px" y="0px"
	 viewBox="0 0 297 297" style="enable-background:new 0 0 297 297;" xml:space="preserve">
<g>
	<path d="M105.966,62.077h85.069c5.424,0,9.821-4.397,9.821-9.821v-2.335c0-5.424-4.397-9.821-9.821-9.821h-85.069
		c-5.424,0-9.821,4.397-9.821,9.821v2.335C96.145,57.68,100.542,62.077,105.966,62.077z"/>
	<path d="M159.077,10.577C159.077,4.736,154.341,0,148.5,0s-10.577,4.736-10.577,10.577v15.657h21.154V10.577z"/>
	<path d="M208.259,145.454V91.003c0-8.303-6.755-15.058-15.059-15.058h-89.401c-8.303,0-15.059,6.755-15.059,15.058v54.451
		c18.911,3.686,32.788,20.383,32.788,41.018c0,20.635-13.877,37.332-32.788,41.018v54.451c0,8.303,6.755,15.059,15.059,15.059
		h89.401c8.303,0,15.059-6.755,15.059-15.059V227.49c-18.911-3.686-32.788-20.383-32.788-41.018
		C175.471,165.837,189.348,149.14,208.259,145.454z"/>
</g>
<g>
</g>
<g>
</g>
<g>
</g>
<g>
</g>
<g>
</g>
<g>
</g>
<g>
</g>
<g>
</g>
<g>
</g>
<g>
</g>
<g>
</g>
<g>
</g>
<g>
</g>
<g>
</g>
<g>
</g>
</svg>
